# xmcd
#
# Track frame offsets:
#	150
#	11390
#	25495
#	35620
#	44892
#	56100
#	67092
#	77480
#	89077
#	101170
#	108305
#	118595
#	126502
#	135287
#	144342
#	152220
#	162810
#	170822
#	179662
#	191580
#	203180
#	213972
#	223285
#	231965
#	238577
#	244747
#	252307
#	260637
#
# Disc length: 3546 seconds
#
# Revision: 0
# Processed by: cddbd v1.5.1PL0 Copyright (c) Steve Scherf et al.
# Submitted via: audiograbber 1.83.01
#
DISCID=af0dd81c
DTITLE=Hank Snow - Thesaurus Transcriptions Vol 5
DYEAR=1900
DGENRE=
TTITLE0=My Rough and Rowdy Ways
TTITLE1=Sing Me a Song of the Islands
TTITLE2=Little Joe
TTITLE3=White Christmas
TTITLE4=Blue Christmas
TTITLE5=Making Believe
TTITLE6=Any Old Time
TTITLE7=Never No' Mo' Blues
TTITLE8=When My Blue Moon Turns to Gold Again
TTITLE9=Katy Hill [Instrumental]
TTITLE10=Put Your Arms Around Me
TTITLE11=I Was Sorta Wonderin' [Instrumental]
TTITLE12=San Antonio Rose [Instrumental]
TTITLE13=Over the Waves [Instrumental]
TTITLE14=Do Right Daddy Blues
TTITLE15=As Long as I Live
TTITLE16=Poison Love
TTITLE17=Loose Talk
TTITLE18=The Waltz You Saved for Me
TTITLE19=Memories Are Made of This
TTITLE20=I Really Don't Want to Know
TTITLE21=The Wayward Wind
TTITLE22=Chant of the Wanderer
TTITLE23=Put on Your Old Grey Bonnet [Instrumental]
TTITLE24=When You and I Were Young, Maggie [Instrumental]
TTITLE25=Sentimental Journey [Instrumental]
TTITLE26=The Birth of the Blues [Instrumental]
TTITLE27=Outroduction
EXTD=
EXTT0=
EXTT1=
EXTT2=
EXTT3=
EXTT4=
EXTT5=
EXTT6=
EXTT7=
EXTT8=
EXTT9=
EXTT10=
EXTT11=
EXTT12=
EXTT13=
EXTT14=
EXTT15=
EXTT16=
EXTT17=
EXTT18=
EXTT19=
EXTT20=
EXTT21=
EXTT22=
EXTT23=
EXTT24=
EXTT25=
EXTT26=
EXTT27=
PLAYORDER=
